<svg aria-hidden="true" viewBox="0 0 48 48" xmlns="http://www.w3.org/2000/svg">
  <path fill="#FFC107" d="M43.611 20.083H42V20H24v8h11.303c-1.649 4.657-6.08 8-11.303 8-7.18 0-13-5.82-13-13s5.82-13 13-13c3.314 0 6.334 1.25 8.627 3.298l5.657-5.657C34.676 4.298 29.62 2 24 2 12.954 2 4 10.954 4 22s8.954 20 20 20 20-8.954 20-20c0-.65-.05-1.284-.389-1.917Z"/>
  <path fill="#FF3D00" d="m6.306 12.691 6.571 4.819C14.655 13.108 18.961 10 24 10c3.314 0 6.334 1.25 8.627 3.298l5.657-5.657C34.676 4.298 29.62 2 24 2 16.318 2 9.656 6.337 6.306 12.691Z"/>
  <path fill="#4CAF50" d="M24 42c5.486 0 10.432-2.103 14.006-5.511l-6.183-5.238C29.748 32.827 27.038 34 24 34c-5.018 0-9.309-3.084-11.096-7.456l-6.522 5.025C9.692 37.993 16.354 42 24 42Z"/>
  <path fill="#1976D2" d="M43.611 20.083H42V20H24v8h11.303a12.06 12.06 0 0 1-3.48 5.251l.003-.002 6.183 5.238C37.571 38.885 44 34 44 22c0-.65-.05-1.284-.389-1.917Z"/>
</svg>
